<svg  xmlns="http://www.w3.org/2000/svg" id="el__njH0eE0n" data-name="Layer 1" viewBox="0 0 1137 518">
    <style>
        @-webkit-keyframes kf_el_HiqEEb6lRl2_an_153ITxFdH{
        0%{-webkit-transform: translate(561.5px, 19px) translate(-561.5px, -19px) translate(-400px, 250px);transform: translate(561.5px, 19px) translate(-561.5px, -19px) translate(-400px, 250px);}
        30%{-webkit-transform: translate(561.5px, 19px) translate(-561.5px, -19px) translate(-280px, 100px);transform: translate(561.5px, 19px) translate(-561.5px, -19px) translate(-280px, 100px);}
        50%{-webkit-transform: translate(561.5px, 19px) translate(-561.5px, -19px) translate(-200px, 50px);transform: translate(561.5px, 19px) translate(-561.5px, -19px) translate(-200px, 50px);}
        100%{-webkit-transform: translate(561.5px, 19px) translate(-561.5px, -19px) translate(0px, 0px);
        transform: translate(561.5px, 19px) translate(-561.5px, -19px) translate(0px, 0px);}}
        @keyframes kf_el_HiqEEb6lRl2_an_153ITxFdH{
        0%{-webkit-transform: translate(561.5px, 19px) translate(-561.5px, -19px) translate(-400px, 250px);transform: translate(561.5px, 19px) translate(-561.5px, -19px) translate(-400px, 250px);}
        30%{-webkit-transform: translate(561.5px, 19px) translate(-561.5px, -19px) translate(-280px, 100px);transform: translate(561.5px, 19px) translate(-561.5px, -19px) translate(-280px, 100px);}
        50%{-webkit-transform: translate(561.5px, 19px) translate(-561.5px, -19px) translate(-200px, 50px);transform: translate(561.5px, 19px) translate(-561.5px, -19px) translate(-200px, 50px);}
        100%{-webkit-transform: translate(561.5px, 19px) translate(-561.5px, -19px) translate(0px, 0px);transform: translate(561.5px, 19px) translate(-561.5px, -19px) translate(0px, 0px);}}
        @-webkit-keyframes kf_el_MSls3I0aZHn_an_AugGLGG3Q{
        0%{-webkit-transform: translate(574px, 190.97169494628906px) translate(-574px, -190.97169494628906px) translate(-400px, 250px);transform: translate(574px, 190.97169494628906px) translate(-574px, -190.97169494628906px) translate(-400px, 250px);}
        30%{-webkit-transform: translate(574px, 190.97169494628906px) translate(-574px, -190.97169494628906px) translate(-280px, 100px);transform: translate(574px, 190.97169494628906px) translate(-574px, -190.97169494628906px) translate(-280px, 100px);}
        50%{-webkit-transform: translate(574px, 190.97169494628906px) translate(-574px, -190.97169494628906px) translate(-200px, 50px);transform: translate(574px, 190.97169494628906px) translate(-574px, -190.97169494628906px) translate(-200px, 50px);}
        100%{-webkit-transform: translate(574px, 190.97169494628906px) translate(-574px, -190.97169494628906px) translate(0px, 0px);transform: translate(574px, 190.97169494628906px) translate(-574px, -190.97169494628906px) translate(0px, 0px);}}
        @keyframes kf_el_MSls3I0aZHn_an_AugGLGG3Q{
        0%{-webkit-transform: translate(574px, 190.97169494628906px) translate(-574px, -190.97169494628906px) translate(-400px, 250px);transform: translate(574px, 190.97169494628906px) translate(-574px, -190.97169494628906px) translate(-400px, 250px);}
        30%{-webkit-transform: translate(574px, 190.97169494628906px) translate(-574px, -190.97169494628906px) translate(-280px, 100px);transform: translate(574px, 190.97169494628906px) translate(-574px, -190.97169494628906px) translate(-280px, 100px);}
        50%{-webkit-transform: translate(574px, 190.97169494628906px) translate(-574px, -190.97169494628906px) translate(-200px, 50px);transform: translate(574px, 190.97169494628906px) translate(-574px, -190.97169494628906px) translate(-200px, 50px);}
        100%{-webkit-transform: translate(574px, 190.97169494628906px) translate(-574px, -190.97169494628906px) translate(0px, 0px);transform: translate(574px, 190.97169494628906px) translate(-574px, -190.97169494628906px) translate(0px, 0px);}}
        @-webkit-keyframes kf_el__erZ0glGGwz_an_aXkz5rbrG{
        0%{-webkit-transform: translate(549.5px, 154.9499969482422px) translate(-549.5px, -154.9499969482422px) translate(-400px, 250px);transform: translate(549.5px, 154.9499969482422px) translate(-549.5px, -154.9499969482422px) translate(-400px, 250px);}
        30%{-webkit-transform: translate(549.5px, 154.9499969482422px) translate(-549.5px, -154.9499969482422px) translate(-280px, 100px);transform: translate(549.5px, 154.9499969482422px) translate(-549.5px, -154.9499969482422px) translate(-280px, 100px);}
        50%{-webkit-transform: translate(549.5px, 154.9499969482422px) translate(-549.5px, -154.9499969482422px) translate(-200px, 50px);transform: translate(549.5px, 154.9499969482422px) translate(-549.5px, -154.9499969482422px) translate(-200px, 50px);}
        100%{-webkit-transform: translate(549.5px, 154.9499969482422px) translate(-549.5px, -154.9499969482422px) translate(0px, 0px);transform: translate(549.5px, 154.9499969482422px) translate(-549.5px, -154.9499969482422px) translate(0px, 0px);}}
        @keyframes kf_el__erZ0glGGwz_an_aXkz5rbrG{
        0%{-webkit-transform: translate(549.5px, 154.9499969482422px) translate(-549.5px, -154.9499969482422px) translate(-400px, 250px);transform: translate(549.5px, 154.9499969482422px) translate(-549.5px, -154.9499969482422px) translate(-400px, 250px);}
        30%{-webkit-transform: translate(549.5px, 154.9499969482422px) translate(-549.5px, -154.9499969482422px) translate(-280px, 100px);transform: translate(549.5px, 154.9499969482422px) translate(-549.5px, -154.9499969482422px) translate(-280px, 100px);}
        50%{-webkit-transform: translate(549.5px, 154.9499969482422px) translate(-549.5px, -154.9499969482422px) translate(-200px, 50px);transform: translate(549.5px, 154.9499969482422px) translate(-549.5px, -154.9499969482422px) translate(-200px, 50px);}
        100%{-webkit-transform: translate(549.5px, 154.9499969482422px) translate(-549.5px, -154.9499969482422px) translate(0px, 0px);transform: translate(549.5px, 154.9499969482422px) translate(-549.5px, -154.9499969482422px) translate(0px, 0px);}}
        #el__njH0eE0n *{-webkit-animation-duration: 1s;animation-duration: 1s;-webkit-animation-iteration-count: 1;animation-iteration-count: 1;-webkit-animation-timing-function: cubic-bezier(0, 0, 1, 1);animation-timing-function: cubic-bezier(0, 0, 1, 1);}
        #el_6Qjdn8q4H5{-webkit-transform: translate(-31.5px, -190.97168px);transform: translate(-31.5px, -190.97168px);fill: #3f3d56;}
        #el_f2Apl-MQv1{fill: #ff6584;}
        #el_TNwPR5RSV8{fill: #3f3d56;}
        #el_RJ7zx0T7ns{-webkit-transform: translate(-31.5px, -190.97168px);transform: translate(-31.5px, -190.97168px);fill: #6195ff;}
        #el_FfNfywTRP1{-webkit-transform: translate(-31.5px, -190.97168px);transform: translate(-31.5px, -190.97168px);opacity: 0.1;}
        #el_DFRmCtwhvd{fill: #6195ff;opacity: 0.4;}#el_HkYLKguCCl{fill: #6195ff;opacity: 0.4;}
        #el_tkM4kO3gER{fill: #6195ff;opacity: 0.4;}#el_WtXy3kgNzP{fill: #6195ff;opacity: 0.4;}
        #el_y9fONpLBzU{-webkit-transform: translate(-31.5px, -190.97168px);transform: translate(-31.5px, -190.97168px);fill: #3f3d56;}
        #el_w_8KZ-xfev{-webkit-transform: translate(-31.5px, -190.97168px);transform: translate(-31.5px, -190.97168px);fill: #6195ff;}
        #el_EjnlvOW_kq{-webkit-transform: translate(-31.5px, -190.97168px);transform: translate(-31.5px, -190.97168px);fill: #3f3d56;}
        #el_JXhu3sHdRe{-webkit-transform: translate(-31.5px, -190.97168px);transform: translate(-31.5px, -190.97168px);fill: #6195ff;}
        #el_64ALAFXvBW{fill: #3f3d56;}
        #el_8qNkGXN09t{fill: #ccc;}
        #el_oJLKRkBTFA2{fill: #f2f2f2;}
        #el_8u39W3b6cuN{fill: #3f3d56;}
        #el_Edgpacyk95f{fill: #ccc;}
        #el_d9CjAkNyY66{fill: #3f3d56;}
        #el_UjoZB_RSaxB{fill: #3f3d56;}
        #el_Z_MLAta2mkB{fill: #3f3d56;}
        #el_C4xd3DkpphO{fill: #3f3d56;}
        #el_v4uXIF_ZYjL{fill: #3f3d56;}
        #el_2nD0tOmByWH{fill: #3f3d56;}
        #el_ll9ReBh3r_C{fill: #3f3d56;}
        #el_VzsZS25NoRb{fill: #3f3d56;}
        #el_5CNDBJZQ4Ws{fill: #3f3d56;}
        #el_YZsSn8cUpy3{fill: #ccc;}
        #el_by4N2NmiB-a{fill: #f2f2f2;}
        #el_M47wga2afHt{fill: #3f3d56;}
        #el_07PgYOL2GkO{fill: #ccc;}
        #el_yNkAJXUM70w{fill: #3f3d56;}
        #el_KFbBNo4taXa{fill: #3f3d56;}
        #el_X7wG5iXRk3F{fill: #3f3d56;}
        #el_3EG7_bj24Cp{fill: #3f3d56;}
        #el_PVAHBt3lkNX{fill: #3f3d56;}
        #el_pxwHxmznspE{fill: #3f3d56;}
        #el_gtRekqmaQbY{fill: #3f3d56;}
        #el_rvY4ekJV2zU{fill: #3f3d56;}
        #el_rfE8sG2Ylwf{fill: #3f3d56;}
        #el_VewI3WApCEC{fill: #ccc;}
        #el_vrOIi8G9aZf{fill: #f2f2f2;}
        #el_marFDvly4Pa{fill: #ccc;}
        #el_JfHENhx6eA_{fill: #3f3d56;}
        #el_qaPuPrfgDNp{fill: #3f3d56;}
        #el_J2WAC1AGbfZ{fill: #3f3d56;}
        #el_xvFHfphGeLU{fill: #3f3d56;}
        #el_4xbgVSYUPmy{fill: #3f3d56;}
        #el_OtSZSmR1JBg{fill: #3f3d56;}
        #el_Y_vf7xJPS0i{fill: #3f3d56;}
        #el_MNs3W04a9W1{fill: #3f3d56;}
        #el_ruNUOQgMjYv{fill: #3f3d56;}
        #el_SnHhn0skmDK{fill: #3f3d56;}
        #el_l-Sbv-y6XU9{fill: #3f3d56;}
        #el_J-91Rr7Dq1D{fill: #3f3d56;}#el_hs3Iyr_P32p{fill: #3f3d56;}#el_WevG401C3fS{fill: #3f3d56;}#el_J2unhts0cnV{fill: #3f3d56;}#el_HHQqDr-cyZ6{fill: #3f3d56;}#el_jjpFR-SFrEc{fill: #3f3d56;}#el_b2jE1f2Szju{fill: #3f3d56;}#el_CewLRYCHi1x{fill: #3f3d56;}#el_nSMtMZsCE0V{fill: #3f3d56;}#el_18lS1HorB8Z{fill: #3f3d56;}#el_uokCx3vPC2M{fill: #3f3d56;}#el_RjF9qjdhU-V{fill: #3f3d56;}#el_iuBCEeAFP2v{fill: #3f3d56;}#el_A3DP4EwfVVk{fill: #3f3d56;}#el_qc-tBM3bOll{fill: #3f3d56;}#el_KKjRv19b9GY{fill: #3f3d56;}#el_1Hlkw1nOXoZ{fill: #3f3d56;}#el_X-sX24B8uxc{fill: #3f3d56;}#el_pSuPF7E7AHp{fill: #ccc;}#el_2Ib6UCYmlDf{fill: #f2f2f2;}#el_RPRyKbisDZm{fill: #ccc;}#el_CTKZkn-QpgT{fill: #3f3d56;}#el_iEDeCryWGJZ{fill: #3f3d56;}#el_e1U7BTyI5zn{fill: #3f3d56;}#el_ewhP0uQaHfC{fill: #3f3d56;}#el_WXQWxLZcRST{fill: #3f3d56;}#el_MHEJ_8izq76{fill: #3f3d56;}#el_uHAxBNmW8Ek{fill: #3f3d56;}#el_d2jFzscwg-M{fill: #3f3d56;}#el_KhbcPrQjdsS{fill: #3f3d56;}#el_c7JZK2KGCbU{fill: #3f3d56;}#el_VA0qONlnrag{fill: #3f3d56;}#el_QuGY_W6GwcC{fill: #3f3d56;}#el_YEkycDRFvP8{fill: #3f3d56;}#el_-ZIhmel39Un{fill: #3f3d56;}#el_o6ZrQprkmor{fill: #3f3d56;}#el_p_-WUDil5MM{fill: #3f3d56;}#el_NzY5CnePwRY{fill: #3f3d56;}#el_2CenodeehxA{fill: #3f3d56;}#el_cgSnVrqRmfB{fill: #3f3d56;}#el_QE5mzHX5e-Y{fill: #3f3d56;}#el_X60nedwT9km{fill: #3f3d56;}#el_clBgZUQlLi6{fill: #3f3d56;}#el_osi4r6m286N{fill: #3f3d56;}#el_nA3EtcwQIWe{fill: #3f3d56;}#el_I_-LqWQIVVc{fill: #3f3d56;}#el_niMXVUeqd3K{fill: #3f3d56;}#el_jDJd1p01NaQ{fill: #3f3d56;}#el_-d9ZswyGvK_{fill: #3f3d56;}#el_kyvwaA4aO2Q{fill: #3f3d56;}#el_6vPbSGjZOs9{fill: #ccc;}#el_9_DJmiXQf5Q{fill: #f2f2f2;}#el_ubkZlrhuBME{fill: #ccc;}#el_pk4vxLcI4p0{fill: #3f3d56;}#el_Bqwd9ABUZyC{fill: #3f3d56;}#el_6VHLPqZYcDF{fill: #3f3d56;}#el_bI4QZwKv2dA{fill: #3f3d56;}#el_vhHHq-scxcA{fill: #3f3d56;}#el_Ob8u2p0dM1f{fill: #3f3d56;}#el_QvYnkc90mWE{fill: #3f3d56;}#el_acmdY78UaXU{fill: #3f3d56;}#el_-LXa6b0i4HL{fill: #3f3d56;}#el_Jq07VUHWCC9{fill: #3f3d56;}#el_0DENHEdWwWk{fill: #3f3d56;}#el_7leNJy6GTwb{fill: #3f3d56;}#el_GJKPX9Z36BN{fill: #3f3d56;}#el_ZXwk9NP96Ih{fill: #3f3d56;}#el_WLDj7ViTw66{fill: #3f3d56;}#el_SIJw6AAhWlS{fill: #3f3d56;}#el_eBFWCNDNWy5{fill: #3f3d56;}#el_frkAqGpqMZG{fill: #3f3d56;}#el_jpgUsH1wMuI{fill: #3f3d56;}#el_NcAMSNA4cNX{fill: #3f3d56;}#el_97c56d4cs8s{fill: #3f3d56;}#el_qt2w13rEk2t{fill: #3f3d56;}#el_C5o0KcoL_G_{fill: #3f3d56;}#el_uqPLXw-LsBw{fill: #3f3d56;}#el_-jb2h25HOH-{fill: #3f3d56;}#el_2W3L0PP_-fP{fill: #3f3d56;}#el_9YGmQ0azzBk{fill: #3f3d56;}#el_7rz5mEizpJU{fill: #3f3d56;}#el_Qgua4zjDV33{fill: #3f3d56;}#el_v0PiSLMfKCV{fill: #3f3d56;}#el_vj-ESMNik-S{-webkit-transform: translate(-31.5px, -190.97168px);transform: translate(-31.5px, -190.97168px);fill: #6195ff;}#el_4Uhl1wIpK2v{fill: #3f3d56;}#el_5CwGrjWlCBF{-webkit-transform: translate(-31.5px, -190.97168px);transform: translate(-31.5px, -190.97168px);fill: #6195ff;}#el_6dv4UYdmUk3{fill: #3f3d56;}#el_1cxnvqtp2AE{-webkit-transform: translate(-31.5px, -190.97168px);transform: translate(-31.5px, -190.97168px);fill: #6195ff;}#el__erZ0glGGwz{fill: #6195ff;}#el_MSls3I0aZHn{-webkit-transform: translate(-31.5px, -190.97168px);transform: translate(-31.5px, -190.97168px);fill: #6195ff;}#el_HiqEEb6lRl2{fill: #f2f2f2;}
        #el__erZ0glGGwz_an_aXkz5rbrG{-webkit-animation-fill-mode: backwards;animation-fill-mode: backwards;-webkit-transform: translate(549.5px, 154.9499969482422px) translate(-549.5px, -154.9499969482422px) translate(-400px, 250px);transform: translate(549.5px, 154.9499969482422px) translate(-549.5px, -154.9499969482422px) translate(-400px, 250px);-webkit-animation-name: kf_el__erZ0glGGwz_an_aXkz5rbrG;animation-name: kf_el__erZ0glGGwz_an_aXkz5rbrG;-webkit-animation-timing-function: cubic-bezier(0, 0, 1, 1);animation-timing-function: cubic-bezier(0, 0, 1, 1);}#el_MSls3I0aZHn_an_AugGLGG3Q{-webkit-animation-fill-mode: backwards;animation-fill-mode: backwards;-webkit-transform: translate(574px, 190.97169494628906px) translate(-574px, -190.97169494628906px) translate(-400px, 250px);transform: translate(574px, 190.97169494628906px) translate(-574px, -190.97169494628906px) translate(-400px, 250px);-webkit-animation-name: kf_el_MSls3I0aZHn_an_AugGLGG3Q;animation-name: kf_el_MSls3I0aZHn_an_AugGLGG3Q;-webkit-animation-timing-function: cubic-bezier(0, 0, 1, 1);animation-timing-function: cubic-bezier(0, 0, 1, 1);}
        #el_HiqEEb6lRl2_an_153ITxFdH{-webkit-animation-fill-mode: backwards;animation-fill-mode: backwards;-webkit-transform: translate(561.5px, 19px) translate(-561.5px, -19px) translate(-400px, 250px);transform: translate(561.5px, 19px) translate(-561.5px, -19px) translate(-400px, 250px);-webkit-animation-name: kf_el_HiqEEb6lRl2_an_153ITxFdH;animation-name: kf_el_HiqEEb6lRl2_an_153ITxFdH;-webkit-animation-timing-function: cubic-bezier(0, 0, 1, 1);animation-timing-function: cubic-bezier(0, 0, 1, 1);}
    </style>
    <title>
        best place
    </title>
    <path id="el_6Qjdn8q4H5" d="M175.76416,701.583l-1.95117-.43946c21.75586-96.751,76.43017-184.60937,153.95117-247.3916A444.114,444.114,0,0,1,1039.919,699.96289l-1.94922.44336C991.916,498.19727,814.69531,356.97168,607,356.97168,402.02637,356.97168,220.66553,501.90137,175.76416,701.583Z"/>
    <circle id="el_f2Apl-MQv1" cx="899.63335" cy="219.90276" r="54.31516"/>
    <rect id="el_TNwPR5RSV8" width="2" height="79" x="877" y="437.05664"/>
    <path id="el_RJ7zx0T7ns" d="M928.95773,638.096c.12732,27.62433-19.30786,50.10833-19.30786,50.10833s-19.6416-22.3039-19.76892-49.92823,19.30786-50.10833,19.30786-50.10833S928.83041,610.47163,928.95773,638.096Z"/>
    <path id="el_FfNfywTRP1" d="M928.95773,638.096c.12732,27.62433-19.30786,50.10833-19.30786,50.10833s-19.6416-22.3039-19.76892-49.92823,19.30786-50.10833,19.30786-50.10833S928.83041,610.47163,928.95773,638.096Z"/>
    <circle id="el_DFRmCtwhvd" cx="501.02166" cy="248.742" r="31.2479"/>
    <circle id="el_HkYLKguCCl" cx="443.18972" cy="263.66637" r="21.92017"/>
    <circle id="el_tkM4kO3gER" cx="208.18972" cy="326.66637" r="21.92017"/>
    <circle id="el_WtXy3kgNzP" cx="856.31222" cy="246.17134" r="31.2479"/>
    <path id="el_y9fONpLBzU" d="M88.13058,698.24412c1.694,6.26184,7.4961,10.14,7.4961,10.14s3.05572-6.27434,1.36177-12.53618-7.49609-10.14-7.49609-10.14S86.43664,691.98227,88.13058,698.24412Z"/>
    <path id="el_w_8KZ-xfev" d="M90.61972,696.89838c4.64821,4.52485,5.216,11.4806,5.216,11.4806s-6.9685-.38049-11.61672-4.90534-5.216-11.48059-5.216-11.48059S85.9715,692.37353,90.61972,696.89838Z"/>
    <path id="el_EjnlvOW_kq" d="M700.13058,698.24412c1.69395,6.26184,7.4961,10.14,7.4961,10.14s3.05572-6.27434,1.36177-12.53618-7.49609-10.14-7.49609-10.14S698.43664,691.98227,700.13058,698.24412Z"/>
    <path id="el_JXhu3sHdRe" d="M702.61972,696.89838c4.64821,4.52485,5.216,11.4806,5.216,11.4806s-6.9685-.38049-11.61672-4.90534-5.216-11.48059-5.216-11.48059S697.9715,692.37353,702.61972,696.89838Z"/>
    <polygon id="el_64ALAFXvBW" points="68.137 460.203 64 453.308 102.614 420.21 201.908 420.21 201.908 429.863 166.052 468.478 124.679 476.752 68.137 460.203"/>
    <polygon id="el_8qNkGXN09t" points="219 439.633 219 418.056 206 418.056 206 424.86 201.908 420.21 168.81 453.308 163.293 458.824 156.398 486.406 168.81 516.745 232.247 516.745 232.247 454.687 219 439.633"/>
    <rect id="el_oJLKRkBTFA2" width="104.80978" height="63.4375" x="64" y="453.30771"/>
    <rect id="el_8u39W3b6cuN" width="22.06522" height="19.30707" x="132.26427" y="473.30431"/>
    <rect id="el_Edgpacyk95f" width="19.30707" height="44.13043" x="103.99321" y="472.61477"/>
    <polygon id="el_d9CjAkNyY66" points="81.928 479.51 81.928 472.615 73.654 472.615 73.654 479.51 81.238 479.51 81.928 479.51"/>
    <polygon id="el_UjoZB_RSaxB" points="81.238 485.026 73.654 485.026 73.654 491.922 81.928 491.922 81.928 485.026 81.238 485.026"/>
    <rect id="el_Z_MLAta2mkB" width="8.27446" height="6.89538" x="87.44429" y="472.61477"/>
    <rect id="el_C4xd3DkpphO" width="8.27446" height="6.89538" x="87.44429" y="485.02646"/>
    <polygon id="el_v4uXIF_ZYjL" points="198.46 480.2 198.46 473.304 190.185 473.304 190.185 480.2 197.77 480.2 198.46 480.2"/>
    <polygon id="el_2nD0tOmByWH" points="197.77 485.716 190.185 485.716 190.185 492.611 198.46 492.611 198.46 485.716 197.77 485.716"/>
    <rect id="el_ll9ReBh3r_C" width="8.27446" height="6.89538" x="203.97622" y="473.30431"/>
    <rect id="el_VzsZS25NoRb" width="8.27446" height="6.89538" x="203.97622" y="485.716"/>
    <polygon id="el_5CNDBJZQ4Ws" points="467.137 460.203 463 453.308 501.614 420.21 600.908 420.21 600.908 429.863 565.052 468.478 523.679 476.752 467.137 460.203"/>
    <polygon id="el_YZsSn8cUpy3" points="618 439.633 618 418.056 605 418.056 605 424.86 600.908 420.21 567.81 453.308 562.293 458.824 555.398 486.406 567.81 516.745 631.247 516.745 631.247 454.687 618 439.633"/>
    <rect id="el_by4N2NmiB-a" width="104.80978" height="63.4375" x="463" y="453.30771"/>
    <rect id="el_M47wga2afHt" width="22.06522" height="19.30707" x="531.26427" y="473.30431"/>
    <rect id="el_07PgYOL2GkO" width="19.30707" height="44.13043" x="502.99321" y="472.61477"/>
    <polygon id="el_yNkAJXUM70w" points="480.928 479.51 480.928 472.615 472.654 472.615 472.654 479.51 480.238 479.51 480.928 479.51"/>
    <polygon id="el_KFbBNo4taXa" points="480.238 485.026 472.654 485.026 472.654 491.922 480.928 491.922 480.928 485.026 480.238 485.026"/>
    <rect id="el_X7wG5iXRk3F" width="8.27446" height="6.89538" x="486.44429" y="472.61477"/>
    <rect id="el_3EG7_bj24Cp" width="8.27446" height="6.89538" x="486.44429" y="485.02646"/>
    <polygon id="el_PVAHBt3lkNX" points="597.46 480.2 597.46 473.304 589.185 473.304 589.185 480.2 596.77 480.2 597.46 480.2"/>
    <polygon id="el_pxwHxmznspE" points="596.77 485.716 589.185 485.716 589.185 492.611 597.46 492.611 597.46 485.716 596.77 485.716"/>
    <rect id="el_gtRekqmaQbY" width="8.27446" height="6.89538" x="602.97622" y="473.30431"/>
    <rect id="el_rvY4ekJV2zU" width="8.27446" height="6.89538" x="602.97622" y="485.716"/>
    <polygon id="el_rfE8sG2Ylwf" points="280.515 344.361 273.62 338.844 312.234 304.367 410.148 304.367 410.148 334.707 346.711 377.459 280.515 344.361"/>
    <polygon id="el_VewI3WApCEC" points="428 323.707 428 305.056 415 305.056 415 309.624 410.148 304.367 378.429 338.844 366.018 347.119 346.773 487.722 375.796 516.745 443.246 516.745 443.246 340.223 428 323.707"/>
    <rect id="el_vrOIi8G9aZf" width="104.80978" height="177.90082" x="273.61957" y="338.84439"/>
    <rect id="el_marFDvly4Pa" width="19.30707" height="43.4409" x="314.30231" y="473.30431"/>
    <polygon id="el_JfHENhx6eA_" points="293.616 485.716 293.616 478.821 285.342 478.821 285.342 485.716 292.927 485.716 293.616 485.716"/>
    <polygon id="el_qaPuPrfgDNp" points="292.927 491.232 285.342 491.232 285.342 498.128 293.616 498.128 293.616 491.232 292.927 491.232"/>
    <rect id="el_J2WAC1AGbfZ" width="8.27446" height="6.89538" x="299.13247" y="478.82062"/>
    <rect id="el_xvFHfphGeLU" width="8.27446" height="6.89538" x="299.13247" y="491.2323"/>
    <polygon id="el_4xbgVSYUPmy" points="350.158 485.716 350.158 478.821 341.884 478.821 341.884 485.716 349.469 485.716 350.158 485.716"/>
    <polygon id="el_OtSZSmR1JBg" points="349.469 491.232 341.884 491.232 341.884 498.128 350.158 498.128 350.158 491.232 349.469 491.232"/>
    <rect id="el_Y_vf7xJPS0i" width="8.27446" height="6.89538" x="355.67459" y="478.82062"/>
    <rect id="el_MNs3W04a9W1" width="8.27446" height="6.89538" x="355.67459" y="491.2323"/>
    <polygon id="el_ruNUOQgMjYv" points="408.079 347.808 408.079 340.913 399.805 340.913 399.805 347.808 407.39 347.808 408.079 347.808"/>
    <polygon id="el_SnHhn0skmDK" points="407.39 353.325 399.805 353.325 399.805 360.22 408.079 360.22 408.079 353.325 407.39 353.325"/>
    <rect id="el_l-Sbv-y6XU9" width="8.27446" height="6.89538" x="413.59579" y="340.91301"/>
    <rect id="el_J-91Rr7Dq1D" width="8.27446" height="6.89538" x="413.59579" y="353.32469"/>
    <polygon id="el_hs3Iyr_P32p" points="408.079 386.423 408.079 379.527 399.805 379.527 399.805 386.423 407.39 386.423 408.079 386.423"/>
    <polygon id="el_WevG401C3fS" points="407.39 391.939 399.805 391.939 399.805 398.834 408.079 398.834 408.079 391.939 407.39 391.939"/>
    <rect id="el_J2unhts0cnV" width="8.27446" height="6.89538" x="413.59579" y="379.52714"/>
    <rect id="el_HHQqDr-cyZ6" width="8.27446" height="6.89538" x="413.59579" y="391.93882"/>
    <polygon id="el_jjpFR-SFrEc" points="408.079 425.037 408.079 418.141 399.805 418.141 399.805 425.037 407.39 425.037 408.079 425.037"/>
    <polygon id="el_b2jE1f2Szju" points="407.39 430.553 399.805 430.553 399.805 437.448 408.079 437.448 408.079 430.553 407.39 430.553"/>
    <rect id="el_CewLRYCHi1x" width="8.27446" height="6.89538" x="413.59579" y="418.14127"/>
    <rect id="el_nSMtMZsCE0V" width="8.27446" height="6.89538" x="413.59579" y="430.55295"/>
    <polygon id="el_18lS1HorB8Z" points="408.079 463.651 408.079 456.755 399.805 456.755 399.805 463.651 407.39 463.651 408.079 463.651"/>
    <polygon id="el_uokCx3vPC2M" points="407.39 469.167 399.805 469.167 399.805 476.062 408.079 476.062 408.079 469.167 407.39 469.167"/>
    <rect id="el_RjF9qjdhU-V" width="8.27446" height="6.89538" x="413.59579" y="456.7554"/>
    <rect id="el_iuBCEeAFP2v" width="8.27446" height="6.89538" x="413.59579" y="469.16708"/>
    <rect id="el_A3DP4EwfVVk" width="79.98641" height="16.54891" x="285.34171" y="347.80839"/>
    <rect id="el_qc-tBM3bOll" width="79.98641" height="16.54891" x="285.34171" y="380.90621"/>
    <rect id="el_KKjRv19b9GY" width="79.98641" height="16.54891" x="285.34171" y="414.00404"/>
    <rect id="el_1Hlkw1nOXoZ" width="79.98641" height="16.54891" x="285.34171" y="447.10187"/>
    <polygon id="el_X-sX24B8uxc" points="683.515 344.361 676.62 338.844 715.234 304.367 813.148 304.367 813.148 334.707 749.711 377.459 683.515 344.361"/>
    <polygon id="el_pSuPF7E7AHp" points="831 323.707 831 305.056 818 305.056 818 309.624 813.148 304.367 781.429 338.844 769.018 347.119 749.773 487.722 778.796 516.745 846.246 516.745 846.246 340.223 831 323.707"/>
    <rect id="el_2Ib6UCYmlDf" width="104.80978" height="177.90082" x="676.61957" y="338.84439"/>
    <rect id="el_RPRyKbisDZm" width="19.30707" height="43.4409" x="717.30231" y="473.30431"/>
    <polygon id="el_CTKZkn-QpgT" points="696.616 485.716 696.616 478.821 688.342 478.821 688.342 485.716 695.927 485.716 696.616 485.716"/>
    <polygon id="el_iEDeCryWGJZ" points="695.927 491.232 688.342 491.232 688.342 498.128 696.616 498.128 696.616 491.232 695.927 491.232"/>
    <rect id="el_e1U7BTyI5zn" width="8.27446" height="6.89538" x="702.13247" y="478.82062"/>
    <rect id="el_ewhP0uQaHfC" width="8.27446" height="6.89538" x="702.13247" y="491.2323"/>
    <polygon id="el_WXQWxLZcRST" points="753.158 485.716 753.158 478.821 744.884 478.821 744.884 485.716 752.469 485.716 753.158 485.716"/>
    <polygon id="el_MHEJ_8izq76" points="752.469 491.232 744.884 491.232 744.884 498.128 753.158 498.128 753.158 491.232 752.469 491.232"/>
    <rect id="el_uHAxBNmW8Ek" width="8.27446" height="6.89538" x="758.67459" y="478.82062"/>
    <rect id="el_d2jFzscwg-M" width="8.27446" height="6.89538" x="758.67459" y="491.2323"/>
    <polygon id="el_KhbcPrQjdsS" points="811.079 347.808 811.079 340.913 802.805 340.913 802.805 347.808 810.39 347.808 811.079 347.808"/>
    <polygon id="el_c7JZK2KGCbU" points="810.39 353.325 802.805 353.325 802.805 360.22 811.079 360.22 811.079 353.325 810.39 353.325"/>
    <rect id="el_VA0qONlnrag" width="8.27446" height="6.89538" x="816.59579" y="340.91301"/>
    <rect id="el_QuGY_W6GwcC" width="8.27446" height="6.89538" x="816.59579" y="353.32469"/>
    <polygon id="el_YEkycDRFvP8" points="811.079 386.423 811.079 379.527 802.805 379.527 802.805 386.423 810.39 386.423 811.079 386.423"/>
    <polygon id="el_-ZIhmel39Un" points="810.39 391.939 802.805 391.939 802.805 398.834 811.079 398.834 811.079 391.939 810.39 391.939"/>
    <rect id="el_o6ZrQprkmor" width="8.27446" height="6.89538" x="816.59579" y="379.52714"/>
    <rect id="el_p_-WUDil5MM" width="8.27446" height="6.89538" x="816.59579" y="391.93882"/>
    <polygon id="el_NzY5CnePwRY" points="811.079 425.037 811.079 418.141 802.805 418.141 802.805 425.037 810.39 425.037 811.079 425.037"/>
    <polygon id="el_2CenodeehxA" points="810.39 430.553 802.805 430.553 802.805 437.448 811.079 437.448 811.079 430.553 810.39 430.553"/>
    <rect id="el_cgSnVrqRmfB" width="8.27446" height="6.89538" x="816.59579" y="418.14127"/>
    <rect id="el_QE5mzHX5e-Y" width="8.27446" height="6.89538" x="816.59579" y="430.55295"/>
    <polygon id="el_X60nedwT9km" points="811.079 463.651 811.079 456.755 802.805 456.755 802.805 463.651 810.39 463.651 811.079 463.651"/>
    <polygon id="el_clBgZUQlLi6" points="810.39 469.167 802.805 469.167 802.805 476.062 811.079 476.062 811.079 469.167 810.39 469.167"/>
    <rect id="el_osi4r6m286N" width="8.27446" height="6.89538" x="816.59579" y="456.7554"/>
    <rect id="el_nA3EtcwQIWe" width="8.27446" height="6.89538" x="816.59579" y="469.16708"/>
    <rect id="el_I_-LqWQIVVc" width="79.98641" height="16.54891" x="688.34171" y="347.80839"/>
    <rect id="el_niMXVUeqd3K" width="79.98641" height="16.54891" x="688.34171" y="380.90621"/>
    <rect id="el_jDJd1p01NaQ" width="79.98641" height="16.54891" x="688.34171" y="414.00404"/>
    <rect id="el_-d9ZswyGvK_" width="79.98641" height="16.54891" x="688.34171" y="447.10187"/>
    <polygon id="el_kyvwaA4aO2Q" points="904.515 344.361 897.62 338.844 936.234 304.367 1034.148 304.367 1034.148 334.707 970.711 377.459 904.515 344.361"/>
    <polygon id="el_6vPbSGjZOs9" points="1052 323.707 1052 305.056 1039 305.056 1039 309.624 1034.148 304.367 1002.429 338.844 990.018 347.119 970.773 487.722 999.796 516.745 1067.246 516.745 1067.246 340.223 1052 323.707"/>
    <rect id="el_9_DJmiXQf5Q" width="104.80978" height="177.90082" x="897.61957" y="338.84439"/>
    <rect id="el_ubkZlrhuBME" width="19.30707" height="43.4409" x="938.30231" y="473.30431"/>
    <polygon id="el_pk4vxLcI4p0" points="917.616 485.716 917.616 478.821 909.342 478.821 909.342 485.716 916.927 485.716 917.616 485.716"/>
    <polygon id="el_Bqwd9ABUZyC" points="916.927 491.232 909.342 491.232 909.342 498.128 917.616 498.128 917.616 491.232 916.927 491.232"/>
    <rect id="el_6VHLPqZYcDF" width="8.27446" height="6.89538" x="923.13247" y="478.82062"/>
    <rect id="el_bI4QZwKv2dA" width="8.27446" height="6.89538" x="923.13247" y="491.2323"/>
    <polygon id="el_vhHHq-scxcA" points="974.158 485.716 974.158 478.821 965.884 478.821 965.884 485.716 973.469 485.716 974.158 485.716"/>
    <polygon id="el_Ob8u2p0dM1f" points="973.469 491.232 965.884 491.232 965.884 498.128 974.158 498.128 974.158 491.232 973.469 491.232"/>
    <rect id="el_QvYnkc90mWE" width="8.27446" height="6.89538" x="979.67459" y="478.82062"/>
    <rect id="el_acmdY78UaXU" width="8.27446" height="6.89538" x="979.67459" y="491.2323"/>
    <polygon id="el_-LXa6b0i4HL" points="1032.079 347.808 1032.079 340.913 1023.805 340.913 1023.805 347.808 1031.39 347.808 1032.079 347.808"/>
    <polygon id="el_Jq07VUHWCC9" points="1031.39 353.325 1023.805 353.325 1023.805 360.22 1032.079 360.22 1032.079 353.325 1031.39 353.325"/>
    <rect id="el_0DENHEdWwWk" width="8.27446" height="6.89538" x="1037.59579" y="340.91301"/>
    <rect id="el_7leNJy6GTwb" width="8.27446" height="6.89538" x="1037.59579" y="353.32469"/>
    <polygon id="el_GJKPX9Z36BN" points="1032.079 386.423 1032.079 379.527 1023.805 379.527 1023.805 386.423 1031.39 386.423 1032.079 386.423"/>
    <polygon id="el_ZXwk9NP96Ih" points="1031.39 391.939 1023.805 391.939 1023.805 398.834 1032.079 398.834 1032.079 391.939 1031.39 391.939"/>
    <rect id="el_WLDj7ViTw66" width="8.27446" height="6.89538" x="1037.59579" y="379.52714"/>
    <rect id="el_SIJw6AAhWlS" width="8.27446" height="6.89538" x="1037.59579" y="391.93882"/>
    <polygon id="el_eBFWCNDNWy5" points="1032.079 425.037 1032.079 418.141 1023.805 418.141 1023.805 425.037 1031.39 425.037 1032.079 425.037"/>
    <polygon id="el_frkAqGpqMZG" points="1031.39 430.553 1023.805 430.553 1023.805 437.448 1032.079 437.448 1032.079 430.553 1031.39 430.553"/>
    <rect id="el_jpgUsH1wMuI" width="8.27446" height="6.89538" x="1037.59579" y="418.14127"/>
    <rect id="el_NcAMSNA4cNX" width="8.27446" height="6.89538" x="1037.59579" y="430.55295"/>
    <polygon id="el_97c56d4cs8s" points="1032.079 463.651 1032.079 456.755 1023.805 456.755 1023.805 463.651 1031.39 463.651 1032.079 463.651"/>
    <polygon id="el_qt2w13rEk2t" points="1031.39 469.167 1023.805 469.167 1023.805 476.062 1032.079 476.062 1032.079 469.167 1031.39 469.167"/>
    <rect id="el_C5o0KcoL_G_" width="8.27446" height="6.89538" x="1037.59579" y="456.7554"/>
    <rect id="el_uqPLXw-LsBw" width="8.27446" height="6.89538" x="1037.59579" y="469.16708"/>
    <rect id="el_-jb2h25HOH-" width="79.98641" height="16.54891" x="909.34171" y="347.80839"/>
    <rect id="el_2W3L0PP_-fP" width="79.98641" height="16.54891" x="909.34171" y="380.90621"/>
    <rect id="el_9YGmQ0azzBk" width="79.98641" height="16.54891" x="909.34171" y="414.00404"/>
    <rect id="el_7rz5mEizpJU" width="79.98641" height="16.54891" x="909.34171" y="447.10187"/>
    <rect id="el_Qgua4zjDV33" width="1137" height="2" y="516.05664"/>
    <rect id="el_v0PiSLMfKCV" width="2" height="79" x="252" y="437.05664"/>
    <path id="el_vj-ESMNik-S" d="M303.95773,638.096c.12732,27.62433-19.30786,50.10833-19.30786,50.10833s-19.6416-22.3039-19.76892-49.92823,19.30786-50.10833,19.30786-50.10833S303.83041,610.47163,303.95773,638.096Z"/>
    <rect id="el_4Uhl1wIpK2v" width="2" height="79" x="452" y="437.05664"/>
    <path id="el_5CwGrjWlCBF" d="M503.95773,638.096c.12732,27.62433-19.30786,50.10833-19.30786,50.10833s-19.6416-22.3039-19.76892-49.92823,19.30786-50.10833,19.30786-50.10833S503.83041,610.47163,503.95773,638.096Z"/>
    <rect id="el_6dv4UYdmUk3" width="2" height="79" x="851" y="437.05664"/>
    <path id="el_1cxnvqtp2AE" d="M902.95773,638.096c.12732,27.62433-19.30786,50.10833-19.30786,50.10833s-19.6416-22.3039-19.76892-49.92823,19.30786-50.10833,19.30786-50.10833S902.83041,610.47163,902.95773,638.096Z"/>
    <g id="el__erZ0glGGwz_an_aXkz5rbrG" data-animator-group="true" data-animator-type="0">
        <ellipse id="el__erZ0glGGwz" cx="587.5" cy="163.5" rx="38" ry="8.55"/>
    </g>
    <g id="el_MSls3I0aZHn_an_AugGLGG3Q" data-animator-group="true" data-animator-type="0">
        <path id="el_MSls3I0aZHn" d="M662,234.97168c0,24.30053-44,93-44,93s-44-68.69947-44-93a44,44,0,0,1,88,0Z"/>
    </g>
    <g id="el_HiqEEb6lRl2_an_153ITxFdH" data-animator-group="true" data-animator-type="0">
        <circle id="el_HiqEEb6lRl2" cx="586.5" cy="44" r="25"/>
    </g>
</svg>
